<svg width="446" height="457" viewBox="0 0 446 457" fill="none" xmlns="http://www.w3.org/2000/svg">
<path d="M154.971 405.937C154.965 400.012 153.443 394.194 150.558 389.031L150.274 388.533L149.982 388.041C147.028 383.14 142.91 379.047 138.001 376.119L137.507 375.831L137.009 375.55C132.007 372.785 126.402 371.293 120.691 371.201L120.12 371.196C114.212 371.198 108.4 372.698 103.232 375.558L102.734 375.839C99.1853 377.88 95.2867 379.25 91.2363 379.883L90.4238 380C86.0826 380.569 81.6714 380.281 77.4434 379.152C73.2155 378.024 69.256 376.078 65.791 373.43C62.3264 370.782 59.4244 367.483 57.2471 363.727L57.2461 363.724L22.459 303.72L22.458 303.719L22.0586 303.01C20.1067 299.444 18.8329 295.55 18.3008 291.525C17.7333 287.232 18.0203 282.87 19.1465 278.686C20.2727 274.501 22.2168 270.575 24.8711 267.131C27.5256 263.687 30.8389 260.792 34.625 258.616L34.624 258.615C39.9163 255.575 44.322 251.197 47.3887 245.911C50.4566 240.623 52.0742 234.618 52.0742 228.5C52.0742 222.574 50.5559 216.753 47.6719 211.587L47.3887 211.089L47.0967 210.596C44.0442 205.529 39.7483 201.326 34.6191 198.381V198.38C30.8318 196.205 27.5163 193.313 24.8604 189.869C22.2045 186.426 20.2595 182.499 19.1318 178.314C18.0042 174.13 17.7157 169.767 18.2822 165.473C18.8486 161.18 20.2575 157.037 22.4336 153.281L22.4346 153.282L57.2217 93.3018L57.2236 93.2969C59.401 89.5399 62.3038 86.2409 65.7686 83.5928C69.2333 80.9447 73.1923 78.9995 77.4199 77.8711C81.648 76.7427 86.06 76.4543 90.4014 77.0234C94.7424 77.5926 98.9253 79.0069 102.711 81.1836L102.712 81.1846C108.006 84.2282 114.006 85.8268 120.108 85.8262C126.211 85.8255 132.211 84.2256 137.505 81.1807C142.799 78.1355 147.203 73.7502 150.269 68.459C153.333 63.1693 154.949 57.1637 154.947 51.0469C154.947 32.8627 169.763 18.0001 188.21 18H257.807C276.248 18 291.069 32.8802 291.069 51.0469V51.0527C291.071 57.1656 292.689 63.1659 295.752 68.4512C298.815 73.736 303.214 78.1163 308.501 81.1602C313.787 84.2037 319.778 85.8068 325.874 85.8135C331.97 85.8202 337.965 84.2302 343.258 81.1982L343.281 81.1846C350.922 76.7921 360.013 75.5978 368.547 77.874C377.079 80.1499 384.332 85.7014 388.728 93.2793L388.73 93.2852L423.563 153.288C425.739 157.043 427.15 161.184 427.717 165.475C428.284 169.768 427.997 174.13 426.871 178.314C425.745 182.499 423.801 186.425 421.146 189.869C418.492 193.313 415.178 196.208 411.392 198.384L411.382 198.39C406.092 201.434 401.69 205.816 398.626 211.104C395.657 216.226 394.048 222.021 393.95 227.938L393.945 228.512L393.95 229.084C394.048 235.001 395.657 240.796 398.626 245.919C401.69 251.207 406.092 255.589 411.382 258.634L411.389 258.637C419.031 263.031 424.587 270.255 426.86 278.7C429.133 287.141 427.949 296.137 423.56 303.718L388.75 363.745L388.749 363.747C386.708 367.267 384.031 370.383 380.851 372.938L380.208 373.442C376.745 376.088 372.787 378.032 368.562 379.159C364.6 380.215 360.478 380.533 356.403 380.1L355.589 380.003L354.777 379.886C350.73 379.253 346.834 377.882 343.288 375.842L343.272 375.833L343.258 375.824C338.13 372.887 332.344 371.304 326.445 371.214L325.874 371.21C319.778 371.217 313.787 372.819 308.501 375.862C303.379 378.811 299.091 383.015 296.043 388.079L295.752 388.571C292.689 393.856 291.071 399.857 291.069 405.97V405.976C291.069 424.137 276.254 439 257.83 439H188.233C169.787 439 154.971 424.137 154.971 405.953V405.937Z" fill="url(#paint0_linear_2_32)" stroke="black" stroke-width="36"/>
<mask id="mask0_2_32" style="mask-type:alpha" maskUnits="userSpaceOnUse" x="0" y="0" width="446" height="457">
<path d="M154.971 405.937C154.965 400.012 153.443 394.194 150.558 389.031L150.274 388.533L149.982 388.041C147.028 383.14 142.91 379.047 138.001 376.119L137.507 375.831L137.009 375.55C132.007 372.785 126.402 371.293 120.691 371.201L120.12 371.196C114.212 371.198 108.4 372.698 103.232 375.558L102.734 375.839C99.1853 377.88 95.2867 379.25 91.2363 379.883L90.4238 380C86.0826 380.569 81.6714 380.281 77.4434 379.152C73.2155 378.024 69.256 376.078 65.791 373.43C62.3264 370.782 59.4244 367.483 57.2471 363.727L57.2461 363.724L22.459 303.72L22.458 303.719L22.0586 303.01C20.1067 299.444 18.8329 295.55 18.3008 291.525C17.7333 287.232 18.0203 282.87 19.1465 278.686C20.2727 274.501 22.2168 270.575 24.8711 267.131C27.5256 263.687 30.8389 260.792 34.625 258.616L34.624 258.615C39.9163 255.575 44.322 251.197 47.3887 245.911C50.4566 240.623 52.0742 234.618 52.0742 228.5C52.0742 222.574 50.5559 216.753 47.6719 211.587L47.3887 211.089L47.0967 210.596C44.0442 205.529 39.7483 201.326 34.6191 198.381V198.38C30.8318 196.205 27.5163 193.313 24.8604 189.869C22.2045 186.426 20.2595 182.499 19.1318 178.314C18.0042 174.13 17.7157 169.767 18.2822 165.473C18.8486 161.18 20.2575 157.037 22.4336 153.281L22.4346 153.282L57.2217 93.3018L57.2236 93.2969C59.401 89.5399 62.3038 86.2409 65.7686 83.5928C69.2333 80.9447 73.1923 78.9995 77.4199 77.8711C81.648 76.7427 86.06 76.4543 90.4014 77.0234C94.7424 77.5926 98.9253 79.0069 102.711 81.1836L102.712 81.1846C108.006 84.2282 114.006 85.8268 120.108 85.8262C126.211 85.8255 132.211 84.2256 137.505 81.1807C142.799 78.1355 147.203 73.7502 150.269 68.459C153.333 63.1693 154.949 57.1637 154.947 51.0469C154.947 32.8627 169.763 18.0001 188.21 18H257.807C276.248 18 291.069 32.8802 291.069 51.0469V51.0527C291.071 57.1656 292.689 63.1659 295.752 68.4512C298.815 73.736 303.214 78.1163 308.501 81.1602C313.787 84.2037 319.778 85.8068 325.874 85.8135C331.97 85.8202 337.965 84.2302 343.258 81.1982L343.281 81.1846C350.922 76.7921 360.013 75.5978 368.547 77.874C377.079 80.1499 384.332 85.7014 388.728 93.2793L388.73 93.2852L423.563 153.288C425.739 157.043 427.15 161.184 427.717 165.475C428.284 169.768 427.997 174.13 426.871 178.314C425.745 182.499 423.801 186.425 421.146 189.869C418.492 193.313 415.178 196.208 411.392 198.384L411.382 198.39C406.092 201.434 401.69 205.816 398.626 211.104C395.657 216.226 394.048 222.021 393.95 227.938L393.945 228.512L393.95 229.084C394.048 235.001 395.657 240.796 398.626 245.919C401.69 251.207 406.092 255.589 411.382 258.634L411.389 258.637C419.031 263.031 424.587 270.255 426.86 278.7C429.133 287.141 427.949 296.137 423.56 303.718L388.75 363.745L388.749 363.747C386.708 367.267 384.031 370.383 380.851 372.938L380.208 373.442C376.745 376.088 372.787 378.032 368.562 379.159C364.6 380.215 360.478 380.533 356.403 380.1L355.589 380.003L354.777 379.886C350.73 379.253 346.834 377.882 343.288 375.842L343.272 375.833L343.258 375.824C338.13 372.887 332.344 371.304 326.445 371.214L325.874 371.21C319.778 371.217 313.787 372.819 308.501 375.862C303.379 378.811 299.091 383.015 296.043 388.079L295.752 388.571C292.689 393.856 291.071 399.857 291.069 405.97V405.976C291.069 424.137 276.254 439 257.83 439H188.233C169.787 439 154.971 424.137 154.971 405.953V405.937Z" stroke="black" stroke-width="36"/>
<mask id="path-3-outside-1_2_32" maskUnits="userSpaceOnUse" x="110" y="179" width="220" height="110" fill="black">
<rect fill="white" x="110" y="179" width="220" height="110"/>
<path d="M118.656 283.408C114.709 281.879 113.525 279.165 115.104 275.268L150.328 188.54C151.808 185.284 154.127 183.656 157.284 183.656H157.58C160.787 183.804 162.957 185.432 164.092 188.54L199.908 275.268C201.487 279.165 200.352 281.879 196.504 283.408C192.607 284.937 189.893 283.803 188.364 280.004L180.372 260.616H134.27L126.648 280.004C125.119 283.852 122.455 284.987 118.656 283.408ZM139.154 248.184H175.266L156.84 203.34L139.154 248.184ZM228.178 284C224.034 284 221.962 281.928 221.962 277.784V189.872C221.962 185.728 224.034 183.656 228.178 183.656H262.81C271.838 183.656 278.745 186.073 283.53 190.908C288.365 195.693 290.782 202.6 290.782 211.628V216.068C290.782 225.096 288.365 232.027 283.53 236.862C278.745 241.647 271.838 244.04 262.81 244.04H234.394V277.784C234.394 281.928 232.322 284 228.178 284ZM234.394 231.608H262.81C268.434 231.608 272.43 230.424 274.798 228.056C277.166 225.688 278.35 221.692 278.35 216.068V211.628C278.35 206.053 277.166 202.082 274.798 199.714C272.43 197.297 268.434 196.088 262.81 196.088H234.394V231.608ZM318.944 284C316.823 284 315.244 283.507 314.208 282.52C313.221 281.484 312.728 279.905 312.728 277.784V190.02C312.728 187.849 313.221 186.271 314.208 185.284C315.244 184.297 316.823 183.804 318.944 183.804C321.115 183.804 322.693 184.297 323.68 185.284C324.667 186.271 325.16 187.849 325.16 190.02V277.784C325.16 279.905 324.667 281.484 323.68 282.52C322.693 283.507 321.115 284 318.944 284Z"/>
</mask>
<path d="M118.656 283.408C114.709 281.879 113.525 279.165 115.104 275.268L150.328 188.54C151.808 185.284 154.127 183.656 157.284 183.656H157.58C160.787 183.804 162.957 185.432 164.092 188.54L199.908 275.268C201.487 279.165 200.352 281.879 196.504 283.408C192.607 284.937 189.893 283.803 188.364 280.004L180.372 260.616H134.27L126.648 280.004C125.119 283.852 122.455 284.987 118.656 283.408ZM139.154 248.184H175.266L156.84 203.34L139.154 248.184ZM228.178 284C224.034 284 221.962 281.928 221.962 277.784V189.872C221.962 185.728 224.034 183.656 228.178 183.656H262.81C271.838 183.656 278.745 186.073 283.53 190.908C288.365 195.693 290.782 202.6 290.782 211.628V216.068C290.782 225.096 288.365 232.027 283.53 236.862C278.745 241.647 271.838 244.04 262.81 244.04H234.394V277.784C234.394 281.928 232.322 284 228.178 284ZM234.394 231.608H262.81C268.434 231.608 272.43 230.424 274.798 228.056C277.166 225.688 278.35 221.692 278.35 216.068V211.628C278.35 206.053 277.166 202.082 274.798 199.714C272.43 197.297 268.434 196.088 262.81 196.088H234.394V231.608ZM318.944 284C316.823 284 315.244 283.507 314.208 282.52C313.221 281.484 312.728 279.905 312.728 277.784V190.02C312.728 187.849 313.221 186.271 314.208 185.284C315.244 184.297 316.823 183.804 318.944 183.804C321.115 183.804 322.693 184.297 323.68 185.284C324.667 186.271 325.16 187.849 325.16 190.02V277.784C325.16 279.905 324.667 281.484 323.68 282.52C322.693 283.507 321.115 284 318.944 284Z" fill="black"/>
<path d="M118.656 283.408L120.191 279.714L120.146 279.696L120.101 279.678L118.656 283.408ZM115.104 275.268L111.398 273.763L111.397 273.766L115.104 275.268ZM150.328 188.54L146.687 186.885L146.653 186.959L146.622 187.035L150.328 188.54ZM157.58 183.656L157.764 179.66L157.672 179.656H157.58V183.656ZM164.092 188.54L160.335 189.912L160.363 189.99L160.395 190.067L164.092 188.54ZM199.908 275.268L203.615 273.766L203.61 273.754L203.605 273.741L199.908 275.268ZM196.504 283.408L197.965 287.132L197.973 287.128L197.981 287.125L196.504 283.408ZM188.364 280.004L192.075 278.51L192.068 278.495L192.062 278.48L188.364 280.004ZM180.372 260.616L184.07 259.092L183.05 256.616H180.372V260.616ZM134.27 260.616V256.616H131.545L130.547 259.153L134.27 260.616ZM126.648 280.004L130.365 281.481L130.368 281.474L130.371 281.467L126.648 280.004ZM139.154 248.184L135.433 246.716L133.277 252.184H139.154V248.184ZM175.266 248.184V252.184H181.234L178.966 246.664L175.266 248.184ZM156.84 203.34L160.54 201.82L156.764 192.63L153.119 201.872L156.84 203.34ZM118.656 283.408L120.101 279.678C118.692 279.132 118.485 278.65 118.474 278.626C118.466 278.609 118.254 278.146 118.811 276.77L115.104 275.268L111.397 273.766C110.375 276.288 109.966 279.13 111.142 281.826C112.315 284.515 114.674 286.155 117.211 287.138L118.656 283.408ZM115.104 275.268L118.81 276.773L154.034 190.045L150.328 188.54L146.622 187.035L111.398 273.763L115.104 275.268ZM150.328 188.54L153.969 190.195C154.491 189.049 155.035 188.46 155.476 188.151C155.885 187.863 156.43 187.656 157.284 187.656V183.656V179.656C154.981 179.656 152.787 180.263 150.878 181.603C149.001 182.922 147.645 184.775 146.687 186.885L150.328 188.54ZM157.284 183.656V187.656H157.58V183.656V179.656H157.284V183.656ZM157.58 183.656L157.396 187.652C158.347 187.696 158.88 187.938 159.213 188.188C159.554 188.444 159.974 188.925 160.335 189.912L164.092 188.54L167.849 187.168C167.075 185.047 165.843 183.16 164.013 181.788C162.175 180.41 160.019 179.764 157.764 179.66L157.58 183.656ZM164.092 188.54L160.395 190.067L196.211 276.795L199.908 275.268L203.605 273.741L167.789 187.013L164.092 188.54ZM199.908 275.268L196.201 276.77C196.765 278.163 196.564 278.651 196.551 278.683C196.544 278.699 196.365 279.159 195.027 279.691L196.504 283.408L197.981 287.125C200.491 286.128 202.804 284.466 203.931 281.769C205.053 279.087 204.63 276.27 203.615 273.766L199.908 275.268ZM196.504 283.408L195.043 279.684C193.65 280.231 193.144 280.037 193.089 280.014C193.055 279.999 192.599 279.814 192.075 278.51L188.364 280.004L184.653 281.498C185.658 283.993 187.324 286.274 190.003 287.394C192.661 288.506 195.46 288.115 197.965 287.132L196.504 283.408ZM188.364 280.004L192.062 278.48L184.07 259.092L180.372 260.616L176.674 262.14L184.666 281.528L188.364 280.004ZM180.372 260.616V256.616H134.27V260.616V264.616H180.372V260.616ZM134.27 260.616L130.547 259.153L122.925 278.541L126.648 280.004L130.371 281.467L137.993 262.079L134.27 260.616ZM126.648 280.004L122.931 278.527C122.666 279.193 122.412 279.587 122.228 279.806C122.057 280.009 121.956 280.052 121.936 280.061C121.916 280.069 121.82 280.11 121.566 280.093C121.291 280.074 120.843 279.985 120.191 279.714L118.656 283.408L117.121 287.102C119.591 288.128 122.394 288.561 125.07 287.421C127.741 286.284 129.377 283.967 130.365 281.481L126.648 280.004ZM139.154 248.184V252.184H175.266V248.184V244.184H139.154V248.184ZM175.266 248.184L178.966 246.664L160.54 201.82L156.84 203.34L153.14 204.86L171.566 249.704L175.266 248.184ZM156.84 203.34L153.119 201.872L135.433 246.716L139.154 248.184L142.875 249.652L160.561 204.808L156.84 203.34ZM283.53 190.908L280.687 193.722L280.702 193.736L280.716 193.751L283.53 190.908ZM283.53 236.862L286.359 239.69L286.359 239.69L283.53 236.862ZM234.394 244.04V240.04H230.394V244.04H234.394ZM234.394 231.608H230.394V235.608H234.394V231.608ZM274.798 199.714L271.941 202.513L271.955 202.528L271.97 202.542L274.798 199.714ZM234.394 196.088V192.088H230.394V196.088H234.394ZM228.178 284V280C226.723 280 226.366 279.639 226.345 279.618C226.323 279.596 225.962 279.239 225.962 277.784H221.962H217.962C217.962 280.473 218.637 283.224 220.688 285.274C222.739 287.325 225.49 288 228.178 288V284ZM221.962 277.784H225.962V189.872H221.962H217.962V277.784H221.962ZM221.962 189.872H225.962C225.962 188.417 226.323 188.06 226.345 188.038C226.366 188.017 226.723 187.656 228.178 187.656V183.656V179.656C225.49 179.656 222.739 180.331 220.688 182.382C218.637 184.432 217.962 187.183 217.962 189.872H221.962ZM228.178 183.656V187.656H262.81V183.656V179.656H228.178V183.656ZM262.81 183.656V187.656C271.132 187.656 276.875 189.87 280.687 193.722L283.53 190.908L286.373 188.094C280.615 182.277 272.544 179.656 262.81 179.656V183.656ZM283.53 190.908L280.716 193.751C284.568 197.564 286.782 203.306 286.782 211.628H290.782H294.782C294.782 201.894 292.162 193.823 286.344 188.065L283.53 190.908ZM290.782 211.628H286.782V216.068H290.782H294.782V211.628H290.782ZM290.782 216.068H286.782C286.782 224.388 284.569 230.166 280.702 234.034L283.53 236.862L286.359 239.69C292.161 233.889 294.782 225.804 294.782 216.068H290.782ZM283.53 236.862L280.702 234.034C276.891 237.844 271.143 240.04 262.81 240.04V244.04V248.04C272.533 248.04 280.599 245.45 286.359 239.69L283.53 236.862ZM262.81 244.04V240.04H234.394V244.04V248.04H262.81V244.04ZM234.394 244.04H230.394V277.784H234.394H238.394V244.04H234.394ZM234.394 277.784H230.394C230.394 279.239 230.033 279.596 230.012 279.618C229.991 279.639 229.634 280 228.178 280V284V288C230.867 288 233.618 287.325 235.669 285.274C237.719 283.224 238.394 280.473 238.394 277.784H234.394ZM234.394 231.608V235.608H262.81V231.608V227.608H234.394V231.608ZM262.81 231.608V235.608C268.816 235.608 274.136 234.375 277.627 230.884L274.798 228.056L271.97 225.228C270.724 226.473 268.053 227.608 262.81 227.608V231.608ZM274.798 228.056L277.627 230.884C281.117 227.394 282.35 222.074 282.35 216.068H278.35H274.35C274.35 221.31 273.215 223.982 271.97 225.228L274.798 228.056ZM278.35 216.068H282.35V211.628H278.35H274.35V216.068H278.35ZM278.35 211.628H282.35C282.35 205.66 281.112 200.371 277.627 196.886L274.798 199.714L271.97 202.542C273.22 203.793 274.35 206.447 274.35 211.628H278.35ZM274.798 199.714L277.656 196.915C274.167 193.353 268.834 192.088 262.81 192.088V196.088V200.088C268.035 200.088 270.694 201.24 271.941 202.513L274.798 199.714ZM262.81 196.088V192.088H234.394V196.088V200.088H262.81V196.088ZM234.394 196.088H230.394V231.608H234.394H238.394V196.088H234.394ZM314.208 282.52L311.311 285.279L311.379 285.349L311.449 285.417L314.208 282.52ZM314.208 185.284L311.449 182.387L311.414 182.421L311.38 182.456L314.208 185.284ZM323.68 185.284L326.508 182.456L326.508 182.456L323.68 185.284ZM323.68 282.52L326.508 285.348L326.543 285.314L326.576 285.279L323.68 282.52ZM318.944 284V280C317.361 280 316.968 279.624 316.967 279.623L314.208 282.52L311.449 285.417C313.52 287.389 316.284 288 318.944 288V284ZM314.208 282.52L317.104 279.761C317.104 279.76 316.728 279.367 316.728 277.784H312.728H308.728C308.728 280.444 309.339 283.208 311.311 285.279L314.208 282.52ZM312.728 277.784H316.728V190.02H312.728H308.728V277.784H312.728ZM312.728 190.02H316.728C316.728 188.336 317.126 188.023 317.036 188.112L314.208 185.284L311.38 182.456C309.316 184.519 308.728 187.362 308.728 190.02H312.728ZM314.208 185.284L316.967 188.181C316.968 188.18 317.361 187.804 318.944 187.804V183.804V179.804C316.284 179.804 313.52 180.415 311.449 182.387L314.208 185.284ZM318.944 183.804V187.804C320.628 187.804 320.941 188.202 320.852 188.112L323.68 185.284L326.508 182.456C324.445 180.392 321.602 179.804 318.944 179.804V183.804ZM323.68 185.284L320.852 188.112C320.762 188.023 321.16 188.336 321.16 190.02H325.16H329.16C329.16 187.362 328.572 184.519 326.508 182.456L323.68 185.284ZM325.16 190.02H321.16V277.784H325.16H329.16V190.02H325.16ZM325.16 277.784H321.16C321.16 279.367 320.784 279.76 320.783 279.761L323.68 282.52L326.576 285.279C328.549 283.208 329.16 280.444 329.16 277.784H325.16ZM323.68 282.52L320.852 279.692C320.941 279.602 320.628 280 318.944 280V284V288C321.602 288 324.445 287.412 326.508 285.348L323.68 282.52Z" fill="black" mask="url(#path-3-outside-1_2_32)"/>
</mask>
<g mask="url(#mask0_2_32)">
<rect x="-10.5144" y="-5.11426" width="468.114" height="468.114" fill="url(#paint1_linear_2_32)"/>
</g>
<defs>
<linearGradient id="paint0_linear_2_32" x1="144.5" y1="114" x2="320.5" y2="362.5" gradientUnits="userSpaceOnUse">
<stop offset="0.177885" stop-color="#FFE5FB"/>
<stop offset="1" stop-color="#E4F5FF"/>
</linearGradient>
<linearGradient id="paint1_linear_2_32" x1="140.343" y1="84.4857" x2="311.771" y2="368.371" gradientUnits="userSpaceOnUse">
<stop stop-color="#FF66E5"/>
<stop offset="1" stop-color="#47B9FB"/>
</linearGradient>
</defs>
</svg>
